<svg xmlns="http://www.w3.org/2000/svg" version="1.1" xmlns:xlink="http://www.w3.org/1999/xlink" xmlns:svgjs="http://svgjs.dev/svgjs" width="1000" height="1000" viewBox="0 0 1000 1000"><g transform="matrix(1,0,0,1,0,2.2737367544323206e-13)"><svg viewBox="0 0 280 280" data-background-color="#ffffff" preserveAspectRatio="xMidYMid meet" height="1000" width="1000" xmlns="http://www.w3.org/2000/svg" xmlns:xlink="http://www.w3.org/1999/xlink"><g id="tight-bounds" transform="matrix(1,0,0,1,0,-5.684341886080802e-14)"><svg viewBox="0 0 280 280" height="280" width="280"><g><svg viewBox="0 0 280 280" height="280" width="280"><g><svg viewBox="0 0 280 280" height="280" width="280"><g id="textblocktransform"><svg viewBox="0 0 280 280" height="280" width="280" id="textblock"><g><svg viewBox="0 0 280 280" height="280" width="280"><g transform="matrix(1,0,0,1,90.50252531694167,109.21801776537829)"><svg viewBox="0 0 98.99494936611666 61.563964469243416" height="61.563964469243416" width="98.99494936611666"><g><svg version="1.0" xmlns="http://www.w3.org/2000/svg" xmlns:xlink="http://www.w3.org/1999/xlink" x="0" y="0" viewBox="0 0 100 62.188995361328125" enable-background="new 0 0 100 62.188" xml:space="preserve" width="98.99494936611666" height="61.563964469243416" class="icon-o-0" data-fill-palette-color="accent" id="o-0"><path d="M88.051 58.042c2.362-1.581 3.919-4.271 3.919-7.327 0-1.903-0.609-3.659-1.635-5.1h5.074V16.59h-9.584V4.154H77.51V16.59H62.118v-6.415c0-0.449-2.368-3.845-6.235-3.846-3.866 0.001-6.235 3.396-6.235 3.846v6.415H26.765V6.227 0H5.952v6.227H20.52v22.225H8.024v-7.717H1.841v7.717 17.164h11.764c-1.025 1.44-1.635 3.196-1.635 5.1 0 3.056 1.557 5.746 3.919 7.327H0v4.146h100v-4.146H88.051zM59.146 45.616h16.838c-1.025 1.44-1.636 3.196-1.636 5.1 0 3.056 1.557 5.746 3.92 7.327H56.86c2.363-1.581 3.92-4.271 3.92-7.327C60.78 48.812 60.171 47.056 59.146 45.616zM29.591 50.715c0-1.903-0.609-3.659-1.634-5.1h16.836c-1.025 1.44-1.634 3.196-1.634 5.1 0 3.056 1.557 5.746 3.919 7.327H25.672C28.035 56.461 29.591 53.771 29.591 50.715z" fill="#1c4b82" data-fill-palette-color="accent"></path></svg></g></svg></g><path d="M35.766 173.015l3.146 10.2-3.521 1.085-0.974-3.158-20.065 6.189 0.974 3.158-3.52 1.086-3.146-10.199 3.521-1.086 0.977 3.167 20.065-6.188-0.977-3.168zM50.522 205.176l1.761 3.225-24.894 13.598-1.647-3.014 11.579-22.105-0.093-0.086-18.182 9.932-1.766-3.234 24.894-13.598 1.704 3.119-11.417 21.88 0.098 0.095zM64.578 221.151c1.649 1.702 2.717 3.545 3.204 5.53 0.482 1.989 0.373 3.995-0.327 6.018-0.705 2.027-1.989 3.944-3.854 5.751v0l-2.072 2.008c-1.864 1.807-3.82 3.031-5.869 3.672-2.044 0.636-4.052 0.683-6.025 0.138-1.969-0.549-3.777-1.674-5.427-3.375v0l-6.851-7.069 20.369-19.742zM61.932 223.715l-4.03-4.158-15.078 14.613 4.03 4.159c1.705 1.759 3.57 2.588 5.596 2.488 2.031-0.105 4.116-1.195 6.258-3.27v0l2.072-2.008c2.098-2.034 3.25-4.063 3.456-6.089 0.21-2.021-0.558-3.932-2.304-5.735zM87.714 237.795c2.02 1.188 3.531 2.668 4.536 4.44 1.004 1.772 1.442 3.733 1.313 5.881-0.129 2.148-0.856 4.35-2.183 6.605v0l-1.888 3.211c-1.326 2.255-2.897 3.96-4.713 5.116-1.815 1.156-3.741 1.726-5.778 1.71-2.037-0.017-4.065-0.619-6.084-1.807v0c-2.02-1.188-3.531-2.668-4.536-4.44-1.004-1.772-1.442-3.733-1.313-5.881 0.129-2.148 0.856-4.35 2.182-6.605v0l1.889-3.21c1.326-2.255 2.897-3.96 4.712-5.117 1.815-1.156 3.741-1.726 5.779-1.71 2.037 0.017 4.065 0.619 6.084 1.807zM85.851 240.962c-2.094-1.232-4.115-1.525-6.063-0.879-1.948 0.646-3.669 2.24-5.164 4.782v0l-1.888 3.21c-1.495 2.542-2.069 4.811-1.722 6.806 0.347 1.996 1.602 3.63 3.766 4.903v0c2.088 1.228 4.103 1.525 6.044 0.891 1.941-0.634 3.666-2.234 5.174-4.799v0l1.888-3.21c1.495-2.542 2.069-4.811 1.722-6.806-0.342-1.993-1.594-3.625-3.757-4.898zM115.711 249.129c2.419 0.669 4.246 1.79 5.483 3.361 1.243 1.573 1.588 3.358 1.036 5.353v0c-0.492 1.777-1.382 3.161-2.672 4.15-1.289 0.99-2.663 1.425-4.122 1.305v0l-0.056 0.202c1.138 0.854 1.945 2.02 2.42 3.498 0.481 1.48 0.48 3.096-0.005 4.847v0c-0.405 1.463-0.63 2.588-0.676 3.377-0.046 0.789 0.023 1.364 0.207 1.725 0.181 0.368 0.503 0.702 0.965 1.003v0l-0.309 1.116c-0.649 0.076-1.308 0.021-1.975-0.164v0c-1.27-0.352-2.16-1.005-2.669-1.961-0.509-0.956-0.473-2.483 0.108-4.58v0c0.597-2.156 0.616-3.96 0.058-5.413-0.55-1.458-1.492-2.371-2.826-2.74v0l-6.929-1.918-3.332 12.039-3.907-1.082 7.567-27.339zM114.767 252.69l-7.766-2.149-2.272 8.208 7.766 2.149c1.148 0.318 2.265 0.213 3.351-0.315 1.092-0.527 1.797-1.364 2.115-2.513v0l0.042-0.154c0.323-1.168 0.192-2.24-0.394-3.217-0.592-0.979-1.54-1.649-2.842-2.009zM138.549 251.552l4.473-0.033 11.292 28.284-4.383 0.033-2.452-6.143-13.558 0.1-2.311 6.178-3.924 0.029zM146.054 270.019l-5.312-13.6-0.25 0.002-5.151 13.677zM157.953 250.641l10.465-2.099 0.725 3.612-3.241 0.65 4.13 20.588 3.241-0.65 0.724 3.612-10.465 2.099-0.724-3.612 3.25-0.652-4.13-20.588-3.251 0.652zM175.631 245.926l3.756-1.524 9.28 22.872 12.065-4.895 1.922 3.196-16.358 6.637zM218.411 217.906l3.066-2.465 11.291 27.32-3.221 2.59-17.364-12.356-0.225 0.181 8.18 19.738-3.221 2.59-24.092-17.028 3.385-2.722 18.063 12.908 0.194-0.157-8.686-20.446 3.059-2.458 18.071 12.901 0.194-0.157zM227.646 205.897l2.499-3.71 29.719 6.658-2.45 3.635-6.453-1.446-7.576 11.245 3.792 5.396-2.192 3.255zM247.124 210.134l-14.224-3.298-0.139 0.207 8.377 11.977zM243.374 173.806l1.429-3.922 12.951 15.323 10.292 3.748-1.384 3.8-10.292-3.749-19.789 3.45 1.585-4.353 14.984-2.597 0.058-0.159z" fill="#1c4b82" data-fill-palette-color="primary"></path><path d="M1.977 103.523L5.069 93.474 8.533 94.541 7.576 97.652 27.368 103.742 28.326 100.631 31.79 101.697 28.697 111.746 25.233 110.68 26.194 107.56 6.401 101.469 5.441 104.589ZM19.437 64.896L21.175 61.715 45.707 75.124 44.084 78.094 19.585 80.259 19.563 80.383 37.48 90.176 35.742 93.356 11.21 79.948 12.891 76.872 37.112 74.693 37.135 74.569ZM39.174 41.171C40.8 39.494 42.583 38.386 44.524 37.847 46.464 37.309 48.445 37.356 50.464 37.988 52.48 38.616 54.405 39.82 56.24 41.599V41.599L58.29 43.587C60.125 45.366 61.388 47.253 62.078 49.247 62.773 51.247 62.881 53.224 62.403 55.181 61.925 57.137 60.872 58.954 59.246 60.631V60.631L52.498 67.592 32.425 48.132ZM41.776 43.694L37.807 47.788 52.675 62.202 56.644 58.109C58.326 56.374 59.083 54.507 58.916 52.509 58.753 50.516 57.618 48.497 55.51 46.454V46.454L53.46 44.466C51.39 42.46 49.357 41.388 47.359 41.249 45.356 41.106 43.495 41.921 41.776 43.694ZM69.346 17.951C71.337 16.78 73.336 16.188 75.343 16.173 77.356 16.156 79.254 16.719 81.039 17.862 82.829 19.002 84.377 20.683 85.683 22.903V22.903L87.546 26.071C88.852 28.291 89.568 30.461 89.694 32.58 89.826 34.695 89.396 36.628 88.402 38.378 87.414 40.126 85.924 41.585 83.933 42.756V42.756C81.942 43.926 79.943 44.519 77.936 44.533 75.929 44.548 74.03 43.985 72.24 42.845 70.45 41.704 68.902 40.024 67.596 37.804V37.804L65.733 34.636C64.427 32.416 63.711 30.246 63.585 28.127 63.458 26.009 63.889 24.076 64.877 22.328 65.865 20.581 67.355 19.122 69.346 17.951ZM71.183 21.076C69.123 22.287 67.906 23.887 67.531 25.876 67.156 27.865 67.704 30.11 69.176 32.612V32.612L71.038 35.779C72.51 38.281 74.188 39.861 76.074 40.52 77.96 41.18 79.967 40.883 82.096 39.631V39.631C84.156 38.42 85.377 36.826 85.758 34.848 86.14 32.871 85.588 30.62 84.103 28.095V28.095L82.241 24.928C80.769 22.426 79.091 20.846 77.205 20.187 75.325 19.524 73.317 19.82 71.183 21.076ZM106.226 3.724C108.612 3.064 110.728 3.086 112.574 3.791 114.411 4.491 115.602 5.823 116.145 7.786V7.786C116.631 9.544 116.579 11.164 115.988 12.647 115.405 14.134 114.466 15.199 113.173 15.84V15.84L113.229 16.042C114.623 16.188 115.898 16.764 117.053 17.77 118.202 18.779 119.016 20.145 119.493 21.871V21.871C119.893 23.315 120.274 24.38 120.636 25.067 120.993 25.756 121.342 26.208 121.685 26.424 122.028 26.64 122.468 26.756 123.005 26.774V26.774L123.311 27.88C122.804 28.269 122.223 28.554 121.569 28.735V28.735C120.311 29.083 119.224 28.984 118.305 28.436 117.394 27.888 116.651 26.577 116.078 24.505V24.505C115.492 22.388 114.598 20.853 113.395 19.901 112.186 18.951 110.927 18.657 109.619 19.019V19.019L102.786 20.91 106.069 32.775 102.22 33.84 94.764 6.896ZM107.231 7.207L99.58 9.324 101.82 17.417 109.47 15.3C110.599 14.988 111.492 14.333 112.149 13.336 112.797 12.335 112.966 11.273 112.655 10.15V10.15L112.613 9.996C112.293 8.842 111.639 8 110.65 7.473 109.654 6.941 108.514 6.852 107.231 7.207ZM138.827 0L143.23 0.032 153.949 28.068 149.626 28.037 147.314 21.949 133.944 21.851 131.574 27.905 127.7 27.877ZM145.952 18.315L140.908 4.828 140.669 4.826 135.399 18.238ZM165.083 1.65L175.39 3.727 174.674 7.28 171.483 6.637 167.391 26.937 170.582 27.58 169.866 31.133 159.559 29.056 160.275 25.503 163.476 26.148 167.568 5.848 164.367 5.203ZM189.266 8.358L192.964 9.867 183.771 32.397 195.65 37.244 194.808 40.815 178.704 34.243ZM240.575 41.46L243.591 43.892 219.658 60.506 216.487 57.949 224.737 38.639 224.512 38.458 207.223 50.477 204.052 47.919 215.387 21.143 218.721 23.832 210.095 43.942 210.282 44.092 228.14 31.43 231.156 33.862 222.53 53.971 222.717 54.122ZM257.081 61.411L259.537 65.065 242.427 89.726 240.016 86.138 243.74 80.796 236.281 69.7 229.945 71.156 227.784 67.941ZM245.973 77.622L254.267 65.852 254.133 65.653 240.086 68.863ZM276.62 101.091L278.023 104.958 258.547 101.571 248.391 105.255 247.029 101.501 257.185 97.817 269.95 82.703 271.506 86.993 261.829 98.437 261.883 98.587Z" fill="#1c4b82" data-fill-palette-color="primary"></path><path d="M3.159 143.459c0-5.985 4.851-10.836 10.836-10.836 5.985 0 10.836 4.851 10.836 10.836 0 5.985-4.851 10.836-10.836 10.836-5.985 0-10.836-4.851-10.836-10.836zM254.779 143.459c0-5.985 4.851-10.836 10.836-10.836 5.985 0 10.836 4.851 10.836 10.836 0 5.985-4.851 10.836-10.836 10.836-5.985 0-10.836-4.851-10.836-10.836z" fill="#1c4b82" data-fill-palette-color="primary"></path></svg></g></svg></g></svg></g></svg></g><defs></defs></svg><rect width="280" height="280" fill="none" stroke="none" visibility="hidden"></rect></g></svg></g></svg>